<?xml version="1.0" standalone="no"?>
<!DOCTYPE svg PUBLIC "-//W3C//DTD SVG 20010904//EN"
 "http://www.w3.org/TR/2001/REC-SVG-20010904/DTD/svg10.dtd">
<svg version="1.0" xmlns="http://www.w3.org/2000/svg"
 width="700.000000pt" height="700.000000pt" viewBox="0 0 700.000000 700.000000"
 preserveAspectRatio="xMidYMid meet">
<metadata>
Created by potrace 1.14, written by Peter Selinger 2001-2017
</metadata>
<g transform="translate(0.000000,700.000000) scale(0.100000,-0.100000)"
fill="#000000" stroke="none">
<path d="M1275 6979 c-322 -47 -615 -199 -848 -438 -199 -205 -326 -441 -389
-721 l-23 -105 0 -2210 0 -2210 23 -105 c115 -515 481 -927 972 -1093 230 -78
11 -72 2485 -72 2096 0 2214 1 2295 18 596 127 1040 571 1167 1167 17 81 18
199 18 2295 0 2096 -1 2214 -18 2295 -84 395 -311 732 -639 947 -156 102 -305
166 -503 215 l-90 22 -2195 2 c-1221 1 -2222 -2 -2255 -7z m105 -2574 l0 -615
735 0 735 0 0 615 0 615 200 0 200 0 0 -1495 0 -1495 -200 0 -200 0 0 710 0
710 -735 0 -735 0 0 -710 0 -710 -205 0 -205 0 0 1495 0 1495 205 0 205 0 0
-615z m3153 -642 c259 -689 473 -1250 476 -1247 3 3 218 567 476 1252 l471
1247 207 3 c145 2 207 -1 207 -9 0 -7 -1029 -2715 -1125 -2962 -7 -16 -25 -17
-238 -15 l-230 3 -564 1475 c-309 811 -566 1483 -569 1493 -5 16 8 17 206 15
l212 -3 471 -1252z"/>
</g>
</svg>
